<svg xmlns="http://www.w3.org/2000/svg" id="sw-js-blob-svg" viewBox="0 0 100 100" version="1.1">
<defs> 
    <linearGradient id="sw-gradient" x1="0" x2="1" y1="1" y2="0">
        <stop id="stop1" stop-color="rgba(248, 117, 55, 1)" offset="0%"/>
        <stop id="stop2" stop-color="rgba(251, 168, 31, 1)" offset="100%"/>
    </linearGradient>
</defs>
<path fill="none" d="M19.6,-28.6C22.8,-24.6,21.1,-15.5,22.2,-8.2C23.3,-0.9,27.1,4.6,28.3,11.7C29.5,18.9,28.1,27.8,22.9,31.7C17.8,35.6,8.9,34.5,1.8,32C-5.3,29.5,-10.5,25.6,-18.2,22.6C-25.8,19.5,-35.7,17.2,-40.2,11.2C-44.6,5.3,-43.5,-4.2,-38.2,-9.9C-33,-15.6,-23.5,-17.5,-16.4,-20.2C-9.4,-23,-4.7,-26.6,1.7,-29.1C8.2,-31.5,16.4,-32.6,19.6,-28.6Z" width="100%" height="100%" transform="translate(50 50)" stroke-width="1" style="transition: 0.3s;" stroke="url(#sw-gradient)"/>
</svg>